<svg xmlns="http://www.w3.org/2000/svg" viewBox="0 0 100 100" width="100" height="100">
  <circle cx="50" cy="50" r="48" fill="none" stroke="white" stroke-width="2" opacity="0.9"/>
  <circle cx="50" cy="50" r="42" fill="none" stroke="white" stroke-width="0.8" opacity="0.4"/>
  <path d="M50 18 L72 28 L72 58 Q72 75 50 84 Q28 75 28 58 L28 28 Z" fill="white" opacity="0.12"/>
  <path d="M50 18 L72 28 L72 58 Q72 75 50 84 Q28 75 28 58 L28 28 Z" fill="none" stroke="white" stroke-width="1.5" opacity="0.8"/>
  <line x1="32" y1="45" x2="68" y2="45" stroke="white" stroke-width="1" opacity="0.5"/>
  <text x="50" y="42" text-anchor="middle" font-family="Georgia, serif" font-size="10" font-weight="bold" fill="white" opacity="0.95" letter-spacing="1">SRDS</text>
  <text x="50" y="60" text-anchor="middle" font-family="Georgia, serif" font-size="7" fill="white" opacity="0.7">&#9733; 1957 &#9733;</text>
  <defs>
    <path id="topArc" d="M 15,50 A 35,35 0 0,1 85,50"/>
    <path id="bottomArc" d="M 20,54 A 32,32 0 0,0 80,54"/>
  </defs>
  <text font-family="Georgia, serif" font-size="7.5" fill="white" opacity="0.85" letter-spacing="1.5">
    <textPath href="#topArc" startOffset="8%">SADDLE RIVER DAY</textPath>
  </text>
  <text font-family="Georgia, serif" font-size="7.5" fill="white" opacity="0.85" letter-spacing="3">
    <textPath href="#bottomArc" startOffset="25%">SCHOOL</textPath>
  </text>
</svg>
